solid beaker divider_v3-for filament experiments in beaker
facet normal -0.0 -0.0 1.0
  outer loop
    vertex -18.79837974134877 -2.7606012207575565 0.9999999999999999
    vertex -17.66017501637356 7.008439083780008 0.9999999999999999
    vertex -18.872336656423318 2.198842678915604 0.9999999999999999
  endloop
endfacet
facet normal -0.0 -0.0 1.0
  outer loop
    vertex -17.66017501637356 7.008439083780008 0.9999999999999999
    vertex -18.79837974134877 -2.7606012207575565 0.9999999999999999
    vertex -17.443344312692677 -7.531914709345315 0.9999999999999999
  endloop
endfacet
facet normal -0.0 -0.0 1.0
  outer loop
    vertex -17.66017501637356 7.008439083780008 0.9999999999999999
    vertex -17.443344312692677 -7.531914709345315 0.9999999999999999
    vertex -15.244501633777068 11.340421947078001 0.9999999999999999
  endloop
endfacet
facet normal -0.0 -0.0 1.0
  outer loop
    vertex -15.244501633777068 11.340421947078001 0.9999999999999999
    vertex -17.443344312692677 -7.531914709345315 0.9999999999999999
    vertex -14.89957379561601 -11.789940657568762 0.9999999999999999
  endloop
endfacet
facet normal -0.0 -0.0 1.0
  outer loop
    vertex -15.244501633777068 11.340421947078001 0.9999999999999999
    vertex -14.89957379561601 -11.789940657568762 0.9999999999999999
    vertex -11.789940657568765 14.899573795616002 0.9999999999999999
  endloop
endfacet
facet normal -0.0 -0.0 1.0
  outer loop
    vertex -11.789940657568765 14.899573795616002 0.9999999999999999
    vertex -14.89957379561601 -11.789940657568762 0.9999999999999999
    vertex -11.340421947078003 -15.244501633777068 0.9999999999999999
  endloop
endfacet
facet normal -0.0 -0.0 1.0
  outer loop
    vertex -11.789940657568765 14.899573795616002 0.9999999999999999
    vertex -11.340421947078003 -15.244501633777068 0.9999999999999999
    vertex -7.5319147093453145 17.44334431269267 0.9999999999999999
  endloop
endfacet
facet normal -0.0 -0.0 1.0
  outer loop
    vertex -7.5319147093453145 17.44334431269267 0.9999999999999999
    vertex -11.340421947078003 -15.244501633777068 0.9999999999999999
    vertex -7.008439083780012 -17.66017501637356 0.9999999999999999
  endloop
endfacet
facet normal -0.0 -0.0 1.0
  outer loop
    vertex -7.5319147093453145 17.44334431269267 0.9999999999999999
    vertex -7.008439083780012 -17.66017501637356 0.9999999999999999
    vertex -2.7606012207575596 18.798379741348775 0.9999999999999999
  endloop
endfacet
facet normal -0.0 -0.0 1.0
  outer loop
    vertex -2.7606012207575596 18.798379741348775 0.9999999999999999
    vertex -7.008439083780012 -17.66017501637356 0.9999999999999999
    vertex -2.198842678915617 -18.87233665642332 0.9999999999999999
  endloop
endfacet
facet normal -0.0 -0.0 1.0
  outer loop
    vertex -2.7606012207575596 18.798379741348775 0.9999999999999999
    vertex -2.198842678915617 -18.87233665642332 0.9999999999999999
    vertex 2.1988426789156055 18.87233665642332 0.9999999999999999
  endloop
endfacet
facet normal -0.0 -0.0 1.0
  outer loop
    vertex 2.1988426789156055 18.87233665642332 0.9999999999999999
    vertex -2.198842678915617 -18.87233665642332 0.9999999999999999
    vertex 2.760601220757555 -18.798379741348775 0.9999999999999999
  endloop
endfacet
facet normal -0.0 -0.0 1.0
  outer loop
    vertex 2.1988426789156055 18.87233665642332 0.9999999999999999
    vertex 2.760601220757555 -18.798379741348775 0.9999999999999999
    vertex 7.008439083780007 17.66017501637356 0.9999999999999999
  endloop
endfacet
facet normal -0.0 -0.0 1.0
  outer loop
    vertex 7.008439083780007 17.66017501637356 0.9999999999999999
    vertex 2.760601220757555 -18.798379741348775 0.9999999999999999
    vertex 7.531914709345308 -17.443344312692673 0.9999999999999999
  endloop
endfacet
facet normal -0.0 -0.0 1.0
  outer loop
    vertex 7.008439083780007 17.66017501637356 0.9999999999999999
    vertex 7.531914709345308 -17.443344312692673 0.9999999999999999
    vertex 11.340421947078003 15.24450163377707 0.9999999999999999
  endloop
endfacet
facet normal -0.0 -0.0 1.0
  outer loop
    vertex 11.340421947078003 15.24450163377707 0.9999999999999999
    vertex 7.531914709345308 -17.443344312692673 0.9999999999999999
    vertex 11.789940657568755 -14.89957379561601 0.9999999999999999
  endloop
endfacet
facet normal -0.0 -0.0 1.0
  outer loop
    vertex 11.340421947078003 15.24450163377707 0.9999999999999999
    vertex 11.789940657568755 -14.89957379561601 0.9999999999999999
    vertex 14.899573795616005 11.789940657568767 0.9999999999999999
  endloop
endfacet
facet normal -0.0 -0.0 1.0
  outer loop
    vertex 14.899573795616005 11.789940657568767 0.9999999999999999
    vertex 11.789940657568755 -14.89957379561601 0.9999999999999999
    vertex 15.244501633777068 -11.340421947078 0.9999999999999999
  endloop
endfacet
facet normal -0.0 -0.0 1.0
  outer loop
    vertex 14.899573795616005 11.789940657568767 0.9999999999999999
    vertex 15.244501633777068 -11.340421947078 0.9999999999999999
    vertex 17.44334431269267 7.5319147093453225 0.9999999999999999
  endloop
endfacet
facet normal -0.0 -0.0 1.0
  outer loop
    vertex 17.44334431269267 7.5319147093453225 0.9999999999999999
    vertex 15.244501633777068 -11.340421947078 0.9999999999999999
    vertex 17.66017501637356 -7.008439083780001 0.9999999999999999
  endloop
endfacet
facet normal -0.0 -0.0 1.0
  outer loop
    vertex 17.44334431269267 7.5319147093453225 0.9999999999999999
    vertex 17.66017501637356 -7.008439083780001 0.9999999999999999
    vertex 18.79837974134877 2.7606012207575663 0.9999999999999999
  endloop
endfacet
facet normal -0.0 -0.0 1.0
  outer loop
    vertex 18.79837974134877 2.7606012207575663 0.9999999999999999
    vertex 17.66017501637356 -7.008439083780001 0.9999999999999999
    vertex 18.872336656423318 -2.1988426789155997 0.9999999999999999
  endloop
endfacet
facet normal -0.4870313849837893 -0.8733844686280905 -0.0
  outer loop
    vertex -7.008439083780012 -17.66017501637356 0.9999999999999999
    vertex -11.340421947078003 -15.244501633777068 0.0
    vertex -7.008439083780012 -17.66017501637356 0.0
  endloop
endfacet
facet normal -0.4870313849837893 -0.8733844686280905 -0.0
  outer loop
    vertex -11.340421947078003 -15.244501633777068 0.0
    vertex -7.008439083780012 -17.66017501637356 0.9999999999999999
    vertex -11.340421947078003 -15.244501633777068 0.9999999999999999
  endloop
endfacet
facet normal -0.6964847271468705 -0.717571616531165 -0.0
  outer loop
    vertex -11.340421947078003 -15.244501633777068 0.9999999999999999
    vertex -14.89957379561601 -11.789940657568762 0.0
    vertex -11.340421947078003 -15.244501633777068 0.0
  endloop
endfacet
facet normal -0.6964847271468705 -0.717571616531165 -0.0
  outer loop
    vertex -14.89957379561601 -11.789940657568762 0.0
    vertex -11.340421947078003 -15.244501633777068 0.9999999999999999
    vertex -14.89957379561601 -11.789940657568762 0.9999999999999999
  endloop
endfacet
facet normal -0.8584737861503257 -0.5128574446108051 -0.0
  outer loop
    vertex -17.443344312692677 -7.531914709345315 0.9999999999999999
    vertex -14.89957379561601 -11.789940657568762 0.0
    vertex -14.89957379561601 -11.789940657568762 0.9999999999999999
  endloop
endfacet
facet normal -0.8584737861503257 -0.5128574446108051 -0.0
  outer loop
    vertex -14.89957379561601 -11.789940657568762 0.0
    vertex -17.443344312692677 -7.531914709345315 0.9999999999999999
    vertex -17.443344312692677 -7.531914709345315 0.0
  endloop
endfacet
facet normal -0.961959275322646 -0.27319288537721803 -0.0
  outer loop
    vertex -18.79837974134877 -2.7606012207575565 0.9999999999999999
    vertex -17.443344312692677 -7.531914709345315 0.0
    vertex -17.443344312692677 -7.531914709345315 0.9999999999999999
  endloop
endfacet
facet normal -0.961959275322646 -0.27319288537721803 -0.0
  outer loop
    vertex -17.443344312692677 -7.531914709345315 0.0
    vertex -18.79837974134877 -2.7606012207575565 0.9999999999999999
    vertex -18.79837974134877 -2.7606012207575565 0.0
  endloop
endfacet
facet normal -0.9998888295945942 -0.014910682477764734 -0.0
  outer loop
    vertex -18.872336656423318 2.198842678915604 0.9999999999999999
    vertex -18.79837974134877 -2.7606012207575565 0.0
    vertex -18.79837974134877 -2.7606012207575565 0.9999999999999999
  endloop
endfacet
facet normal -0.9998888295945942 -0.014910682477764734 -0.0
  outer loop
    vertex -18.79837974134877 -2.7606012207575565 0.0
    vertex -18.872336656423318 2.198842678915604 0.9999999999999999
    vertex -18.872336656423318 2.198842678915604 0.0
  endloop
endfacet
facet normal 0.8733844686280908 -0.4870313849837887 0.0
  outer loop
    vertex 17.66017501637356 -7.008439083780001 0.0
    vertex 15.244501633777068 -11.340421947078 0.9999999999999999
    vertex 15.244501633777068 -11.340421947078 0.0
  endloop
endfacet
facet normal 0.8733844686280908 -0.4870313849837887 0.0
  outer loop
    vertex 15.244501633777068 -11.340421947078 0.9999999999999999
    vertex 17.66017501637356 -7.008439083780001 0.0
    vertex 17.66017501637356 -7.008439083780001 0.9999999999999999
  endloop
endfacet
facet normal 0.7175716165311647 -0.6964847271468709 0.0
  outer loop
    vertex 15.244501633777068 -11.340421947078 0.0
    vertex 11.789940657568755 -14.89957379561601 0.9999999999999999
    vertex 11.789940657568755 -14.89957379561601 0.0
  endloop
endfacet
facet normal 0.7175716165311647 -0.6964847271468709 0.0
  outer loop
    vertex 11.789940657568755 -14.89957379561601 0.9999999999999999
    vertex 15.244501633777068 -11.340421947078 0.0
    vertex 15.244501633777068 -11.340421947078 0.9999999999999999
  endloop
endfacet
facet normal 0.5128574446108046 -0.8584737861503259 0.0
  outer loop
    vertex 11.789940657568755 -14.89957379561601 0.9999999999999999
    vertex 7.531914709345308 -17.443344312692673 0.0
    vertex 11.789940657568755 -14.89957379561601 0.0
  endloop
endfacet
facet normal 0.5128574446108046 -0.8584737861503259 0.0
  outer loop
    vertex 7.531914709345308 -17.443344312692673 0.0
    vertex 11.789940657568755 -14.89957379561601 0.9999999999999999
    vertex 7.531914709345308 -17.443344312692673 0.9999999999999999
  endloop
endfacet
facet normal 0.27319288537721936 -0.9619592753226456 0.0
  outer loop
    vertex 7.531914709345308 -17.443344312692673 0.9999999999999999
    vertex 2.760601220757555 -18.798379741348775 0.0
    vertex 7.531914709345308 -17.443344312692673 0.0
  endloop
endfacet
facet normal 0.27319288537721936 -0.9619592753226456 0.0
  outer loop
    vertex 2.760601220757555 -18.798379741348775 0.0
    vertex 7.531914709345308 -17.443344312692673 0.9999999999999999
    vertex 2.760601220757555 -18.798379741348775 0.9999999999999999
  endloop
endfacet
facet normal 0.01533433119719797 -0.999882410952525 -0.0001501815603677542
  outer loop
    vertex 2.760601220757555 -18.798379741348775 0.9999999999999999
    vertex 2.4999999999999996 -18.798379741348775 0.0
    vertex 2.760601220757555 -18.798379741348775 0.0
  endloop
endfacet
facet normal 0.01533433119719797 -0.999882410952525 -0.0001501815603677542
  outer loop
    vertex 2.4999999999999996 -18.798379741348775 0.0
    vertex 2.760601220757555 -18.798379741348775 0.9999999999999999
    vertex 0.9999999999999999 -18.82463442586538 0.0
  endloop
endfacet
facet normal 0.01533433119719797 -0.999882410952525 -0.0001501815603677542
  outer loop
    vertex 0.9999999999999999 -18.82463442586538 0.0
    vertex 2.760601220757555 -18.798379741348775 0.9999999999999999
    vertex 0.7500000000000003 -18.82836251093755 0.0
  endloop
endfacet
facet normal 0.01533433119719797 -0.999882410952525 -0.0001501815603677542
  outer loop
    vertex 0.7500000000000003 -18.82836251093755 0.0
    vertex 2.760601220757555 -18.798379741348775 0.9999999999999999
    vertex -0.75 -18.85073102137057 0.0
  endloop
endfacet
facet normal 0.01533433119719797 -0.999882410952525 -0.0001501815603677542
  outer loop
    vertex -0.75 -18.85073102137057 0.0
    vertex 2.760601220757555 -18.798379741348775 0.9999999999999999
    vertex -0.9999999999999999 -18.85445910644274 0.0
  endloop
endfacet
facet normal 0.01533433119719797 -0.999882410952525 -0.0001501815603677542
  outer loop
    vertex -0.9999999999999999 -18.85445910644274 0.0
    vertex -2.198842678915617 -18.87233665642332 -5.0
    vertex -0.9999999999999999 -18.85445910644274 -5.0
  endloop
endfacet
facet normal 0.01533433119719797 -0.999882410952525 -0.0001501815603677542
  outer loop
    vertex -2.198842678915617 -18.87233665642332 -5.0
    vertex -0.9999999999999999 -18.85445910644274 0.0
    vertex -2.198842678915617 -18.87233665642332 0.9999999999999999
  endloop
endfacet
facet normal 0.01533433119719797 -0.999882410952525 -0.0001501815603677542
  outer loop
    vertex -2.198842678915617 -18.87233665642332 0.9999999999999999
    vertex -0.9999999999999999 -18.85445910644274 0.0
    vertex 2.760601220757555 -18.798379741348775 0.9999999999999999
  endloop
endfacet
facet normal 0.01533433119719797 -0.999882410952525 -0.0001501815603677542
  outer loop
    vertex 2.4999999999999996 -18.798379741348775 0.0
    vertex 0.9999999999999999 -18.82463442586538 -5.0
    vertex 2.4999999999999996 -18.798379741348775 -5.0
  endloop
endfacet
facet normal 0.01533433119719797 -0.999882410952525 -0.0001501815603677542
  outer loop
    vertex 0.9999999999999999 -18.82463442586538 -5.0
    vertex 2.4999999999999996 -18.798379741348775 0.0
    vertex 0.9999999999999999 -18.82463442586538 0.0
  endloop
endfacet
facet normal -0.2443876587914812 -0.9696776125240898 -0.0
  outer loop
    vertex -2.198842678915617 -18.87233665642332 0.9999999999999999
    vertex -2.499999999999999 -18.79643603576637 -5.0
    vertex -2.198842678915617 -18.87233665642332 -5.0
  endloop
endfacet
facet normal -0.2443876587914812 -0.9696776125240898 -0.0
  outer loop
    vertex -2.499999999999999 -18.79643603576637 -5.0
    vertex -2.198842678915617 -18.87233665642332 0.9999999999999999
    vertex -2.499999999999999 -18.79643603576637 0.0
  endloop
endfacet
facet normal -0.2443876587914812 -0.9696776125240898 -0.0
  outer loop
    vertex -2.499999999999999 -18.79643603576637 0.0
    vertex -2.198842678915617 -18.87233665642332 0.9999999999999999
    vertex -7.008439083780012 -17.66017501637356 0.0
  endloop
endfacet
facet normal -0.2443876587914812 -0.9696776125240898 -0.0
  outer loop
    vertex -7.008439083780012 -17.66017501637356 0.0
    vertex -2.198842678915617 -18.87233665642332 0.9999999999999999
    vertex -7.008439083780012 -17.66017501637356 0.9999999999999999
  endloop
endfacet
facet normal -0.9696776125240898 0.24438765879148078 0.0
  outer loop
    vertex -17.66017501637356 7.008439083780008 0.9999999999999999
    vertex -18.872336656423318 2.198842678915604 0.0
    vertex -18.872336656423318 2.198842678915604 0.9999999999999999
  endloop
endfacet
facet normal -0.9696776125240898 0.24438765879148078 0.0
  outer loop
    vertex -18.872336656423318 2.198842678915604 0.0
    vertex -17.66017501637356 7.008439083780008 0.9999999999999999
    vertex -17.66017501637356 7.008439083780008 0.0
  endloop
endfacet
facet normal -0.8733844686280907 0.48703138498378873 0.0
  outer loop
    vertex -15.244501633777068 11.340421947078001 0.9999999999999999
    vertex -17.66017501637356 7.008439083780008 0.0
    vertex -17.66017501637356 7.008439083780008 0.9999999999999999
  endloop
endfacet
facet normal -0.8733844686280907 0.48703138498378873 0.0
  outer loop
    vertex -17.66017501637356 7.008439083780008 0.0
    vertex -15.244501633777068 11.340421947078001 0.9999999999999999
    vertex -15.244501633777068 11.340421947078001 0.0
  endloop
endfacet
facet normal -0.7175716165311647 0.6964847271468708 0.0
  outer loop
    vertex -11.789940657568765 14.899573795616002 0.9999999999999999
    vertex -15.244501633777068 11.340421947078001 0.0
    vertex -15.244501633777068 11.340421947078001 0.9999999999999999
  endloop
endfacet
facet normal -0.7175716165311647 0.6964847271468708 0.0
  outer loop
    vertex -15.244501633777068 11.340421947078001 0.0
    vertex -11.789940657568765 14.899573795616002 0.9999999999999999
    vertex -11.789940657568765 14.899573795616002 0.0
  endloop
endfacet
facet normal -0.5128574446108052 0.8584737861503257 0.0
  outer loop
    vertex -11.789940657568765 14.899573795616002 0.9999999999999999
    vertex -7.5319147093453145 17.44334431269267 0.0
    vertex -11.789940657568765 14.899573795616002 0.0
  endloop
endfacet
facet normal -0.5128574446108052 0.8584737861503257 0.0
  outer loop
    vertex -7.5319147093453145 17.44334431269267 0.0
    vertex -11.789940657568765 14.899573795616002 0.9999999999999999
    vertex -7.5319147093453145 17.44334431269267 0.9999999999999999
  endloop
endfacet
facet normal -0.27319288537721986 0.9619592753226455 0.0
  outer loop
    vertex -7.5319147093453145 17.44334431269267 0.9999999999999999
    vertex -2.7606012207575596 18.798379741348775 0.0
    vertex -7.5319147093453145 17.44334431269267 0.0
  endloop
endfacet
facet normal -0.27319288537721986 0.9619592753226455 0.0
  outer loop
    vertex -2.7606012207575596 18.798379741348775 0.0
    vertex -7.5319147093453145 17.44334431269267 0.9999999999999999
    vertex -2.7606012207575596 18.798379741348775 0.9999999999999999
  endloop
endfacet
facet normal -0.014915258300780894 0.9998887470819721 0.0001689043085586518
  outer loop
    vertex -2.7606012207575596 18.798379741348775 0.9999999999999999
    vertex -2.500000000000001 18.80226591543235 0.0
    vertex -2.7606012207575596 18.798379741348775 0.0
  endloop
endfacet
facet normal -0.014915258300780894 0.9998887470819721 0.0001689043085586518
  outer loop
    vertex -2.500000000000001 18.80226591543235 0.0
    vertex -2.7606012207575596 18.798379741348775 0.9999999999999999
    vertex -0.9999999999999999 18.82836251093755 0.0
  endloop
endfacet
facet normal -0.014915258300780894 0.9998887470819721 0.0001689043085586518
  outer loop
    vertex -0.9999999999999999 18.82836251093755 0.0
    vertex -2.7606012207575596 18.798379741348775 0.9999999999999999
    vertex -0.75 18.82836251093755 0.0
  endloop
endfacet
facet normal -0.014915258300780894 0.9998887470819721 0.0001689043085586518
  outer loop
    vertex -0.75 18.82836251093755 0.0
    vertex -2.7606012207575596 18.798379741348775 0.9999999999999999
    vertex 0.7500000000000002 18.85073102137057 0.0
  endloop
endfacet
facet normal -0.014915258300780894 0.9998887470819721 0.0001689043085586518
  outer loop
    vertex 0.7500000000000002 18.85073102137057 0.0
    vertex -2.7606012207575596 18.798379741348775 0.9999999999999999
    vertex 0.9999999999999999 18.854459106442743 0.0
  endloop
endfacet
facet normal -0.014915258300780894 0.9998887470819721 0.0001689043085586518
  outer loop
    vertex 0.9999999999999999 18.854459106442743 0.0
    vertex 2.1988426789156055 18.87233665642332 -5.0
    vertex 0.9999999999999999 18.854459106442743 -5.0
  endloop
endfacet
facet normal -0.014915258300780894 0.9998887470819721 0.0001689043085586518
  outer loop
    vertex 2.1988426789156055 18.87233665642332 -5.0
    vertex 0.9999999999999999 18.854459106442743 0.0
    vertex 2.1988426789156055 18.87233665642332 0.9999999999999999
  endloop
endfacet
facet normal -0.014915258300780894 0.9998887470819721 0.0001689043085586518
  outer loop
    vertex 2.1988426789156055 18.87233665642332 0.9999999999999999
    vertex 0.9999999999999999 18.854459106442743 0.0
    vertex -2.7606012207575596 18.798379741348775 0.9999999999999999
  endloop
endfacet
facet normal -0.014915258300780894 0.9998887470819721 0.0001689043085586518
  outer loop
    vertex -2.500000000000001 18.80226591543235 0.0
    vertex -1.2806569424691123 18.820449174034895 -5.0
    vertex -2.500000000000001 18.80226591543235 -5.0
  endloop
endfacet
facet normal -0.014915258300780894 0.9998887470819721 0.0001689043085586518
  outer loop
    vertex -1.2806569424691123 18.820449174034895 -5.0
    vertex -2.500000000000001 18.80226591543235 0.0
    vertex -0.9999999999999999 18.82836251093755 -5.0
  endloop
endfacet
facet normal -0.014915258300780894 0.9998887470819721 0.0001689043085586518
  outer loop
    vertex -0.9999999999999999 18.82836251093755 -5.0
    vertex -2.500000000000001 18.80226591543235 0.0
    vertex -0.9999999999999999 18.82836251093755 0.0
  endloop
endfacet
facet normal 0.24438765879148086 0.9696776125240898 7.186996595085394e-17
  outer loop
    vertex 2.1988426789156055 18.87233665642332 0.9999999999999999
    vertex 2.4999999999999996 18.79643603576637 -5.0
    vertex 2.1988426789156055 18.87233665642332 -5.0
  endloop
endfacet
facet normal 0.24438765879148086 0.9696776125240898 7.186996595085394e-17
  outer loop
    vertex 2.4999999999999996 18.79643603576637 -5.0
    vertex 2.1988426789156055 18.87233665642332 0.9999999999999999
    vertex 2.4999999999999996 18.79643603576637 0.0
  endloop
endfacet
facet normal 0.24438765879148086 0.9696776125240898 7.186996595085394e-17
  outer loop
    vertex 2.4999999999999996 18.79643603576637 0.0
    vertex 2.1988426789156055 18.87233665642332 0.9999999999999999
    vertex 7.008439083780007 17.66017501637356 0.0
  endloop
endfacet
facet normal 0.24438765879148086 0.9696776125240898 7.186996595085394e-17
  outer loop
    vertex 7.008439083780007 17.66017501637356 0.0
    vertex 2.1988426789156055 18.87233665642332 0.9999999999999999
    vertex 7.008439083780007 17.66017501637356 0.9999999999999999
  endloop
endfacet
facet normal 0.4870313849837885 0.8733844686280909 0.0
  outer loop
    vertex 7.008439083780007 17.66017501637356 0.9999999999999999
    vertex 11.340421947078003 15.24450163377707 0.0
    vertex 7.008439083780007 17.66017501637356 0.0
  endloop
endfacet
facet normal 0.4870313849837885 0.8733844686280909 0.0
  outer loop
    vertex 11.340421947078003 15.24450163377707 0.0
    vertex 7.008439083780007 17.66017501637356 0.9999999999999999
    vertex 11.340421947078003 15.24450163377707 0.9999999999999999
  endloop
endfacet
facet normal 0.6964847271468707 0.717571616531165 0.0
  outer loop
    vertex 11.340421947078003 15.24450163377707 0.9999999999999999
    vertex 14.899573795616005 11.789940657568767 0.0
    vertex 11.340421947078003 15.24450163377707 0.0
  endloop
endfacet
facet normal 0.6964847271468707 0.717571616531165 0.0
  outer loop
    vertex 14.899573795616005 11.789940657568767 0.0
    vertex 11.340421947078003 15.24450163377707 0.9999999999999999
    vertex 14.899573795616005 11.789940657568767 0.9999999999999999
  endloop
endfacet
facet normal 0.8584737861503255 0.5128574446108052 0.0
  outer loop
    vertex 14.899573795616005 11.789940657568767 0.0
    vertex 17.44334431269267 7.5319147093453225 0.9999999999999999
    vertex 17.44334431269267 7.5319147093453225 0.0
  endloop
endfacet
facet normal 0.8584737861503255 0.5128574446108052 0.0
  outer loop
    vertex 17.44334431269267 7.5319147093453225 0.9999999999999999
    vertex 14.899573795616005 11.789940657568767 0.0
    vertex 14.899573795616005 11.789940657568767 0.9999999999999999
  endloop
endfacet
facet normal 0.9619592753226456 0.27319288537721925 0.0
  outer loop
    vertex 17.44334431269267 7.5319147093453225 0.0
    vertex 18.79837974134877 2.7606012207575663 0.9999999999999999
    vertex 18.79837974134877 2.7606012207575663 0.0
  endloop
endfacet
facet normal 0.9619592753226456 0.27319288537721925 0.0
  outer loop
    vertex 18.79837974134877 2.7606012207575663 0.9999999999999999
    vertex 17.44334431269267 7.5319147093453225 0.0
    vertex 17.44334431269267 7.5319147093453225 0.9999999999999999
  endloop
endfacet
facet normal 0.9998888295945941 0.014910682477764716 0.0
  outer loop
    vertex 18.79837974134877 2.7606012207575663 0.0
    vertex 18.872336656423318 -2.1988426789155997 0.9999999999999999
    vertex 18.872336656423318 -2.1988426789155997 0.0
  endloop
endfacet
facet normal 0.9998888295945941 0.014910682477764716 0.0
  outer loop
    vertex 18.872336656423318 -2.1988426789155997 0.9999999999999999
    vertex 18.79837974134877 2.7606012207575663 0.0
    vertex 18.79837974134877 2.7606012207575663 0.9999999999999999
  endloop
endfacet
facet normal 0.9696776125240899 -0.2443876587914804 0.0
  outer loop
    vertex 18.872336656423318 -2.1988426789155997 0.0
    vertex 17.66017501637356 -7.008439083780001 0.9999999999999999
    vertex 17.66017501637356 -7.008439083780001 0.0
  endloop
endfacet
facet normal 0.9696776125240899 -0.2443876587914804 0.0
  outer loop
    vertex 17.66017501637356 -7.008439083780001 0.9999999999999999
    vertex 18.872336656423318 -2.1988426789155997 0.0
    vertex 18.872336656423318 -2.1988426789155997 0.9999999999999999
  endloop
endfacet
facet normal 0.0 0.0 -1.0
  outer loop
    vertex 7.008439083780007 17.66017501637356 0.0
    vertex 2.4999999999999996 0.0 0.0
    vertex 2.4999999999999996 18.79643603576637 0.0
  endloop
endfacet
facet normal 0.0 0.0 -1.0
  outer loop
    vertex 2.4999999999999996 0.0 0.0
    vertex 7.008439083780007 17.66017501637356 0.0
    vertex 2.4999999999999996 -18.798379741348775 0.0
  endloop
endfacet
facet normal 0.0 0.0 -1.0
  outer loop
    vertex 2.4999999999999996 -18.798379741348775 0.0
    vertex 7.008439083780007 17.66017501637356 0.0
    vertex 2.760601220757555 -18.798379741348775 0.0
  endloop
endfacet
facet normal 0.0 0.0 -1.0
  outer loop
    vertex 2.760601220757555 -18.798379741348775 0.0
    vertex 7.008439083780007 17.66017501637356 0.0
    vertex 7.531914709345308 -17.443344312692673 0.0
  endloop
endfacet
facet normal 0.0 0.0 -1.0
  outer loop
    vertex 7.531914709345308 -17.443344312692673 0.0
    vertex 7.008439083780007 17.66017501637356 0.0
    vertex 11.340421947078003 15.24450163377707 0.0
  endloop
endfacet
facet normal 0.0 0.0 -1.0
  outer loop
    vertex 7.531914709345308 -17.443344312692673 0.0
    vertex 11.340421947078003 15.24450163377707 0.0
    vertex 11.789940657568755 -14.89957379561601 0.0
  endloop
endfacet
facet normal 0.0 0.0 -1.0
  outer loop
    vertex 11.789940657568755 -14.89957379561601 0.0
    vertex 11.340421947078003 15.24450163377707 0.0
    vertex 14.899573795616005 11.789940657568767 0.0
  endloop
endfacet
facet normal 0.0 0.0 -1.0
  outer loop
    vertex 11.789940657568755 -14.89957379561601 0.0
    vertex 14.899573795616005 11.789940657568767 0.0
    vertex 15.244501633777068 -11.340421947078 0.0
  endloop
endfacet
facet normal 0.0 0.0 -1.0
  outer loop
    vertex 15.244501633777068 -11.340421947078 0.0
    vertex 14.899573795616005 11.789940657568767 0.0
    vertex 17.44334431269267 7.5319147093453225 0.0
  endloop
endfacet
facet normal 0.0 0.0 -1.0
  outer loop
    vertex 15.244501633777068 -11.340421947078 0.0
    vertex 17.44334431269267 7.5319147093453225 0.0
    vertex 17.66017501637356 -7.008439083780001 0.0
  endloop
endfacet
facet normal 0.0 0.0 -1.0
  outer loop
    vertex 17.66017501637356 -7.008439083780001 0.0
    vertex 17.44334431269267 7.5319147093453225 0.0
    vertex 18.79837974134877 2.7606012207575663 0.0
  endloop
endfacet
facet normal 0.0 0.0 -1.0
  outer loop
    vertex 17.66017501637356 -7.008439083780001 0.0
    vertex 18.79837974134877 2.7606012207575663 0.0
    vertex 18.872336656423318 -2.1988426789155997 0.0
  endloop
endfacet
facet normal 0.0 0.0 -1.0
  outer loop
    vertex -17.66017501637356 7.008439083780008 0.0
    vertex -18.79837974134877 -2.7606012207575565 0.0
    vertex -18.872336656423318 2.198842678915604 0.0
  endloop
endfacet
facet normal 0.0 0.0 -1.0
  outer loop
    vertex -18.79837974134877 -2.7606012207575565 0.0
    vertex -17.66017501637356 7.008439083780008 0.0
    vertex -17.443344312692677 -7.531914709345315 0.0
  endloop
endfacet
facet normal 0.0 0.0 -1.0
  outer loop
    vertex -17.443344312692677 -7.531914709345315 0.0
    vertex -17.66017501637356 7.008439083780008 0.0
    vertex -15.244501633777068 11.340421947078001 0.0
  endloop
endfacet
facet normal 0.0 0.0 -1.0
  outer loop
    vertex -17.443344312692677 -7.531914709345315 0.0
    vertex -15.244501633777068 11.340421947078001 0.0
    vertex -14.89957379561601 -11.789940657568762 0.0
  endloop
endfacet
facet normal 0.0 0.0 -1.0
  outer loop
    vertex -14.89957379561601 -11.789940657568762 0.0
    vertex -15.244501633777068 11.340421947078001 0.0
    vertex -11.789940657568765 14.899573795616002 0.0
  endloop
endfacet
facet normal 0.0 0.0 -1.0
  outer loop
    vertex -14.89957379561601 -11.789940657568762 0.0
    vertex -11.789940657568765 14.899573795616002 0.0
    vertex -11.340421947078003 -15.244501633777068 0.0
  endloop
endfacet
facet normal 0.0 0.0 -1.0
  outer loop
    vertex -11.340421947078003 -15.244501633777068 0.0
    vertex -11.789940657568765 14.899573795616002 0.0
    vertex -7.5319147093453145 17.44334431269267 0.0
  endloop
endfacet
facet normal 0.0 0.0 -1.0
  outer loop
    vertex -11.340421947078003 -15.244501633777068 0.0
    vertex -7.5319147093453145 17.44334431269267 0.0
    vertex -7.008439083780012 -17.66017501637356 0.0
  endloop
endfacet
facet normal 0.0 0.0 -1.0
  outer loop
    vertex -7.008439083780012 -17.66017501637356 0.0
    vertex -7.5319147093453145 17.44334431269267 0.0
    vertex -2.7606012207575596 18.798379741348775 0.0
  endloop
endfacet
facet normal 0.0 0.0 -1.0
  outer loop
    vertex -7.008439083780012 -17.66017501637356 0.0
    vertex -2.7606012207575596 18.798379741348775 0.0
    vertex -2.499999999999999 -18.79643603576637 0.0
  endloop
endfacet
facet normal 0.0 0.0 -1.0
  outer loop
    vertex -2.499999999999999 -18.79643603576637 0.0
    vertex -2.7606012207575596 18.798379741348775 0.0
    vertex -2.500000000000001 18.80226591543235 0.0
  endloop
endfacet
facet normal 0.0 0.0 -1.0
  outer loop
    vertex -2.499999999999999 -18.79643603576637 0.0
    vertex -2.500000000000001 18.80226591543235 0.0
    vertex -2.4999999999999996 0.0 0.0
  endloop
endfacet
facet normal 0.0 0.0 -1.0
  outer loop
    vertex -0.75 18.82836251093755 0.0
    vertex -0.9999999999999999 0.0 0.0
    vertex -0.9999999999999999 18.82836251093755 0.0
  endloop
endfacet
facet normal 0.0 0.0 -1.0
  outer loop
    vertex -0.9999999999999999 0.0 0.0
    vertex -0.75 18.82836251093755 0.0
    vertex -0.9999999999999999 -18.85445910644274 0.0
  endloop
endfacet
facet normal 0.0 0.0 -1.0
  outer loop
    vertex -0.9999999999999999 -18.85445910644274 0.0
    vertex -0.75 18.82836251093755 0.0
    vertex -0.75 -18.85073102137057 0.0
  endloop
endfacet
facet normal 0.0 0.0 -1.0
  outer loop
    vertex -0.75 -18.85073102137057 0.0
    vertex -0.75 18.82836251093755 0.0
    vertex 0.7500000000000002 18.85073102137057 0.0
  endloop
endfacet
facet normal 0.0 0.0 -1.0
  outer loop
    vertex -0.75 -18.85073102137057 0.0
    vertex 0.7500000000000002 18.85073102137057 0.0
    vertex 0.7500000000000003 -18.82836251093755 0.0
  endloop
endfacet
facet normal 0.0 0.0 -1.0
  outer loop
    vertex 0.7500000000000003 -18.82836251093755 0.0
    vertex 0.7500000000000002 18.85073102137057 0.0
    vertex 0.9999999999999999 18.854459106442743 0.0
  endloop
endfacet
facet normal 0.0 0.0 -1.0
  outer loop
    vertex 0.7500000000000003 -18.82836251093755 0.0
    vertex 0.9999999999999999 18.854459106442743 0.0
    vertex 0.9999999999999999 -18.82463442586538 0.0
  endloop
endfacet
facet normal 0.0 0.0 -1.0
  outer loop
    vertex 0.9999999999999999 -18.82463442586538 0.0
    vertex 0.9999999999999999 18.854459106442743 0.0
    vertex 0.9999999999999999 0.0 0.0
  endloop
endfacet
facet normal -1.0 -5.624255266422473e-17 -0.0
  outer loop
    vertex -2.500000000000001 18.80226591543235 0.0
    vertex -2.4999999999999996 0.0 -5.0
    vertex -2.4999999999999996 0.0 0.0
  endloop
endfacet
facet normal -1.0 -5.624255266422473e-17 -0.0
  outer loop
    vertex -2.4999999999999996 0.0 -5.0
    vertex -2.500000000000001 18.80226591543235 0.0
    vertex -2.500000000000001 18.80226591543235 -5.0
  endloop
endfacet
facet normal -1.0 -3.7506664523822346e-17 -0.0
  outer loop
    vertex -2.4999999999999996 0.0 0.0
    vertex -2.499999999999999 -18.79643603576637 -5.0
    vertex -2.499999999999999 -18.79643603576637 0.0
  endloop
endfacet
facet normal -1.0 -3.7506664523822346e-17 -0.0
  outer loop
    vertex -2.499999999999999 -18.79643603576637 -5.0
    vertex -2.4999999999999996 0.0 0.0
    vertex -2.4999999999999996 0.0 -5.0
  endloop
endfacet
facet normal 1.0 -0.0 -0.0
  outer loop
    vertex -0.9999999999999999 18.82836251093755 -5.0
    vertex -0.9999999999999999 0.0 0.0
    vertex -0.9999999999999999 0.0 -5.0
  endloop
endfacet
facet normal 1.0 -0.0 -0.0
  outer loop
    vertex -0.9999999999999999 0.0 0.0
    vertex -0.9999999999999999 18.82836251093755 -5.0
    vertex -0.9999999999999999 18.82836251093755 0.0
  endloop
endfacet
facet normal 0.0 0.0 -1.0
  outer loop
    vertex -1.2806569424691123 18.820449174034895 -5.0
    vertex -2.4999999999999996 0.0 -5.0
    vertex -2.500000000000001 18.80226591543235 -5.0
  endloop
endfacet
facet normal 0.0 0.0 -1.0
  outer loop
    vertex -2.4999999999999996 0.0 -5.0
    vertex -1.2806569424691123 18.820449174034895 -5.0
    vertex -2.499999999999999 -18.79643603576637 -5.0
  endloop
endfacet
facet normal 0.0 0.0 -1.0
  outer loop
    vertex -2.499999999999999 -18.79643603576637 -5.0
    vertex -1.2806569424691123 18.820449174034895 -5.0
    vertex -2.198842678915617 -18.87233665642332 -5.0
  endloop
endfacet
facet normal 0.0 0.0 -1.0
  outer loop
    vertex -2.198842678915617 -18.87233665642332 -5.0
    vertex -1.2806569424691123 18.820449174034895 -5.0
    vertex -0.9999999999999999 -18.85445910644274 -5.0
  endloop
endfacet
facet normal 0.0 0.0 -1.0
  outer loop
    vertex -0.9999999999999999 -18.85445910644274 -5.0
    vertex -1.2806569424691123 18.820449174034895 -5.0
    vertex -0.9999999999999999 18.82836251093755 -5.0
  endloop
endfacet
facet normal 0.0 0.0 -1.0
  outer loop
    vertex -0.9999999999999999 -18.85445910644274 -5.0
    vertex -0.9999999999999999 18.82836251093755 -5.0
    vertex -0.9999999999999999 0.0 -5.0
  endloop
endfacet
facet normal 1.0 -0.0 -0.0
  outer loop
    vertex -0.9999999999999999 0.0 -5.0
    vertex -0.9999999999999999 -18.85445910644274 0.0
    vertex -0.9999999999999999 -18.85445910644274 -5.0
  endloop
endfacet
facet normal 1.0 -0.0 -0.0
  outer loop
    vertex -0.9999999999999999 -18.85445910644274 0.0
    vertex -0.9999999999999999 0.0 -5.0
    vertex -0.9999999999999999 0.0 0.0
  endloop
endfacet
facet normal 1.0 0.0 0.0
  outer loop
    vertex 2.4999999999999996 0.0 -5.0
    vertex 2.4999999999999996 -18.798379741348775 0.0
    vertex 2.4999999999999996 -18.798379741348775 -5.0
  endloop
endfacet
facet normal 1.0 0.0 0.0
  outer loop
    vertex 2.4999999999999996 -18.798379741348775 0.0
    vertex 2.4999999999999996 0.0 -5.0
    vertex 2.4999999999999996 0.0 0.0
  endloop
endfacet
facet normal -1.0 0.0 0.0
  outer loop
    vertex 0.9999999999999999 0.0 0.0
    vertex 0.9999999999999999 -18.82463442586538 -5.0
    vertex 0.9999999999999999 -18.82463442586538 0.0
  endloop
endfacet
facet normal -1.0 0.0 0.0
  outer loop
    vertex 0.9999999999999999 -18.82463442586538 -5.0
    vertex 0.9999999999999999 0.0 0.0
    vertex 0.9999999999999999 0.0 -5.0
  endloop
endfacet
facet normal 1.0 -0.0 -0.0
  outer loop
    vertex 2.4999999999999996 18.79643603576637 -5.0
    vertex 2.4999999999999996 0.0 0.0
    vertex 2.4999999999999996 0.0 -5.0
  endloop
endfacet
facet normal 1.0 -0.0 -0.0
  outer loop
    vertex 2.4999999999999996 0.0 0.0
    vertex 2.4999999999999996 18.79643603576637 -5.0
    vertex 2.4999999999999996 18.79643603576637 0.0
  endloop
endfacet
facet normal 0.0 0.0 -1.0
  outer loop
    vertex 2.1988426789156055 18.87233665642332 -5.0
    vertex 0.9999999999999999 0.0 -5.0
    vertex 0.9999999999999999 18.854459106442743 -5.0
  endloop
endfacet
facet normal 0.0 0.0 -1.0
  outer loop
    vertex 0.9999999999999999 0.0 -5.0
    vertex 2.1988426789156055 18.87233665642332 -5.0
    vertex 0.9999999999999999 -18.82463442586538 -5.0
  endloop
endfacet
facet normal 0.0 0.0 -1.0
  outer loop
    vertex 0.9999999999999999 -18.82463442586538 -5.0
    vertex 2.1988426789156055 18.87233665642332 -5.0
    vertex 2.4999999999999996 -18.798379741348775 -5.0
  endloop
endfacet
facet normal 0.0 0.0 -1.0
  outer loop
    vertex 2.4999999999999996 -18.798379741348775 -5.0
    vertex 2.1988426789156055 18.87233665642332 -5.0
    vertex 2.4999999999999996 18.79643603576637 -5.0
  endloop
endfacet
facet normal 0.0 0.0 -1.0
  outer loop
    vertex 2.4999999999999996 -18.798379741348775 -5.0
    vertex 2.4999999999999996 18.79643603576637 -5.0
    vertex 2.4999999999999996 0.0 -5.0
  endloop
endfacet
facet normal -1.0 0.0 0.0
  outer loop
    vertex 0.9999999999999999 18.854459106442743 0.0
    vertex 0.9999999999999999 0.0 -5.0
    vertex 0.9999999999999999 0.0 0.0
  endloop
endfacet
facet normal -1.0 0.0 0.0
  outer loop
    vertex 0.9999999999999999 0.0 -5.0
    vertex 0.9999999999999999 18.854459106442743 0.0
    vertex 0.9999999999999999 18.854459106442743 -5.0
  endloop
endfacet
endsolid beaker divider_v3-for filament experiments in beaker
