solid ascii
  facet normal 0.000000e+000 1.000000e+000 0.000000e+000
    outer loop
      vertex   -5.750000e+001 6.450000e+001 2.000000e+000
      vertex   -5.750000e+001 6.450000e+001 -2.775558e-016
      vertex   -6.250000e+001 6.450000e+001 2.000000e+000
    endloop
  endfacet
  facet normal 0.000000e+000 1.000000e+000 0.000000e+000
    outer loop
      vertex   -6.250000e+001 6.450000e+001 2.000000e+000
      vertex   -5.750000e+001 6.450000e+001 -2.775558e-016
      vertex   -6.250000e+001 6.450000e+001 -2.775558e-016
    endloop
  endfacet
  facet normal 0.000000e+000 1.000000e+000 0.000000e+000
    outer loop
      vertex   -6.650000e+001 6.450000e+001 2.000000e+000
      vertex   -6.650000e+001 6.450000e+001 -2.775558e-016
      vertex   -7.150000e+001 6.450000e+001 2.000000e+000
    endloop
  endfacet
  facet normal 0.000000e+000 1.000000e+000 0.000000e+000
    outer loop
      vertex   -7.150000e+001 6.450000e+001 2.000000e+000
      vertex   -6.650000e+001 6.450000e+001 -2.775558e-016
      vertex   -7.150000e+001 6.450000e+001 -2.775558e-016
    endloop
  endfacet
  facet normal 0.000000e+000 1.000000e+000 0.000000e+000
    outer loop
      vertex   -4.850000e+001 6.450000e+001 2.000000e+000
      vertex   -4.850000e+001 6.450000e+001 -2.775558e-016
      vertex   -5.350000e+001 6.450000e+001 2.000000e+000
    endloop
  endfacet
  facet normal 0.000000e+000 1.000000e+000 0.000000e+000
    outer loop
      vertex   -5.350000e+001 6.450000e+001 2.000000e+000
      vertex   -4.850000e+001 6.450000e+001 -2.775558e-016
      vertex   -5.350000e+001 6.450000e+001 -2.775558e-016
    endloop
  endfacet
  facet normal 0.000000e+000 1.000000e+000 0.000000e+000
    outer loop
      vertex   -7.550000e+001 6.450000e+001 2.000000e+000
      vertex   -7.550000e+001 6.450000e+001 -2.775558e-016
      vertex   -8.050000e+001 6.450000e+001 2.000000e+000
    endloop
  endfacet
  facet normal 0.000000e+000 1.000000e+000 0.000000e+000
    outer loop
      vertex   -8.050000e+001 6.450000e+001 2.000000e+000
      vertex   -7.550000e+001 6.450000e+001 -2.775558e-016
      vertex   -8.050000e+001 6.450000e+001 -2.775558e-016
    endloop
  endfacet
  facet normal 0.000000e+000 1.000000e+000 0.000000e+000
    outer loop
      vertex   -3.950000e+001 6.450000e+001 2.000000e+000
      vertex   -3.950000e+001 6.450000e+001 -2.775558e-016
      vertex   -4.450000e+001 6.450000e+001 2.000000e+000
    endloop
  endfacet
  facet normal 0.000000e+000 1.000000e+000 0.000000e+000
    outer loop
      vertex   -4.450000e+001 6.450000e+001 2.000000e+000
      vertex   -3.950000e+001 6.450000e+001 -2.775558e-016
      vertex   -4.450000e+001 6.450000e+001 -2.775558e-016
    endloop
  endfacet
  facet normal 0.000000e+000 0.000000e+000 1.000000e+000
    outer loop
      vertex   -7.550000e+001 6.450000e+001 2.000000e+000
      vertex   -8.050000e+001 6.450000e+001 2.000000e+000
      vertex   -7.550000e+001 5.050000e+001 2.000000e+000
    endloop
  endfacet
  facet normal 0.000000e+000 0.000000e+000 1.000000e+000
    outer loop
      vertex   -7.550000e+001 5.050000e+001 2.000000e+000
      vertex   -8.050000e+001 6.450000e+001 2.000000e+000
      vertex   -8.050000e+001 5.050000e+001 2.000000e+000
    endloop
  endfacet
  facet normal -1.000000e+000 0.000000e+000 0.000000e+000
    outer loop
      vertex   -8.050000e+001 5.050000e+001 -1.387779e-016
      vertex   -8.050000e+001 5.050000e+001 2.000000e+000
      vertex   -8.050000e+001 6.450000e+001 -2.775558e-016
    endloop
  endfacet
  facet normal -1.000000e+000 0.000000e+000 0.000000e+000
    outer loop
      vertex   -8.050000e+001 6.450000e+001 -2.775558e-016
      vertex   -8.050000e+001 5.050000e+001 2.000000e+000
      vertex   -8.050000e+001 6.450000e+001 2.000000e+000
    endloop
  endfacet
  facet normal 1.000000e+000 -0.000000e+000 0.000000e+000
    outer loop
      vertex   -7.550000e+001 5.050000e+001 2.000000e+000
      vertex   -7.550000e+001 5.050000e+001 -1.387779e-016
      vertex   -7.550000e+001 6.450000e+001 2.000000e+000
    endloop
  endfacet
  facet normal 1.000000e+000 0.000000e+000 0.000000e+000
    outer loop
      vertex   -7.550000e+001 6.450000e+001 2.000000e+000
      vertex   -7.550000e+001 5.050000e+001 -1.387779e-016
      vertex   -7.550000e+001 6.450000e+001 -2.775558e-016
    endloop
  endfacet
  facet normal -0.000000e+000 1.000000e+000 0.000000e+000
    outer loop
      vertex   -7.550000e+001 5.050000e+001 -1.387779e-016
      vertex   -7.550000e+001 5.050000e+001 2.000000e+000
      vertex   -7.150000e+001 5.050000e+001 -1.387779e-016
    endloop
  endfacet
  facet normal 0.000000e+000 1.000000e+000 -0.000000e+000
    outer loop
      vertex   -7.150000e+001 5.050000e+001 -1.387779e-016
      vertex   -7.550000e+001 5.050000e+001 2.000000e+000
      vertex   -7.150000e+001 5.050000e+001 2.000000e+000
    endloop
  endfacet
  facet normal 0.000000e+000 1.000000e+000 -3.552714e-015
    outer loop
      vertex   -7.150000e+001 5.050000e+001 2.000000e+000
      vertex   -7.550000e+001 5.050000e+001 2.000000e+000
      vertex   -8.550000e+001 5.050000e+001 4.000000e+000
    endloop
  endfacet
  facet normal 0.000000e+000 1.000000e+000 -3.552714e-015
    outer loop
      vertex   -6.650000e+001 5.050000e+001 2.000000e+000
      vertex   -8.550000e+001 5.050000e+001 4.000000e+000
      vertex   -6.250000e+001 5.050000e+001 2.000000e+000
    endloop
  endfacet
  facet normal 0.000000e+000 1.000000e+000 -0.000000e+000
    outer loop
      vertex   -6.250000e+001 5.050000e+001 -1.387779e-016
      vertex   -6.650000e+001 5.050000e+001 2.000000e+000
      vertex   -6.250000e+001 5.050000e+001 2.000000e+000
    endloop
  endfacet
  facet normal 0.000000e+000 1.000000e+000 -0.000000e+000
    outer loop
      vertex   -6.250000e+001 5.050000e+001 -1.387779e-016
      vertex   -6.650000e+001 5.050000e+001 -1.387779e-016
      vertex   -6.650000e+001 5.050000e+001 2.000000e+000
    endloop
  endfacet
  facet normal 0.000000e+000 1.000000e+000 -3.552714e-015
    outer loop
      vertex   -7.550000e+001 5.050000e+001 2.000000e+000
      vertex   -8.050000e+001 5.050000e+001 2.000000e+000
      vertex   -8.550000e+001 5.050000e+001 4.000000e+000
    endloop
  endfacet
  facet normal 1.421085e-015 1.000000e+000 0.000000e+000
    outer loop
      vertex   -8.550000e+001 5.050000e+001 4.000000e+000
      vertex   -8.050000e+001 5.050000e+001 2.000000e+000
      vertex   -8.550000e+001 5.050000e+001 0.000000e+000
    endloop
  endfacet
  facet normal 1.421085e-015 1.000000e+000 0.000000e+000
    outer loop
      vertex   -8.550000e+001 5.050000e+001 0.000000e+000
      vertex   -8.050000e+001 5.050000e+001 2.000000e+000
      vertex   -8.050000e+001 5.050000e+001 -1.387779e-016
    endloop
  endfacet
  facet normal 0.000000e+000 1.000000e+000 -3.552714e-015
    outer loop
      vertex   -6.250000e+001 5.050000e+001 2.000000e+000
      vertex   -8.550000e+001 5.050000e+001 4.000000e+000
      vertex   -5.750000e+001 5.050000e+001 2.000000e+000
    endloop
  endfacet
  facet normal 0.000000e+000 1.000000e+000 -3.552714e-015
    outer loop
      vertex   -5.750000e+001 5.050000e+001 2.000000e+000
      vertex   -8.550000e+001 5.050000e+001 4.000000e+000
      vertex   -3.450000e+001 5.050000e+001 4.000000e+000
    endloop
  endfacet
  facet normal 0.000000e+000 1.000000e+000 -3.552714e-015
    outer loop
      vertex   -5.350000e+001 5.050000e+001 2.000000e+000
      vertex   -3.450000e+001 5.050000e+001 4.000000e+000
      vertex   -4.850000e+001 5.050000e+001 2.000000e+000
    endloop
  endfacet
  facet normal 0.000000e+000 1.000000e+000 -3.552714e-015
    outer loop
      vertex   -5.350000e+001 5.050000e+001 2.000000e+000
      vertex   -5.750000e+001 5.050000e+001 2.000000e+000
      vertex   -3.450000e+001 5.050000e+001 4.000000e+000
    endloop
  endfacet
  facet normal 0.000000e+000 1.000000e+000 0.000000e+000
    outer loop
      vertex   -5.350000e+001 5.050000e+001 2.000000e+000
      vertex   -5.350000e+001 5.050000e+001 -1.387779e-016
      vertex   -5.750000e+001 5.050000e+001 2.000000e+000
    endloop
  endfacet
  facet normal 0.000000e+000 1.000000e+000 0.000000e+000
    outer loop
      vertex   -5.750000e+001 5.050000e+001 2.000000e+000
      vertex   -5.350000e+001 5.050000e+001 -1.387779e-016
      vertex   -5.750000e+001 5.050000e+001 -1.387779e-016
    endloop
  endfacet
  facet normal -1.421085e-015 1.000000e+000 0.000000e+000
    outer loop
      vertex   -3.450000e+001 5.050000e+001 0.000000e+000
      vertex   -3.950000e+001 5.050000e+001 2.000000e+000
      vertex   -3.450000e+001 5.050000e+001 4.000000e+000
    endloop
  endfacet
  facet normal -1.421085e-015 1.000000e+000 0.000000e+000
    outer loop
      vertex   -3.450000e+001 5.050000e+001 0.000000e+000
      vertex   -3.950000e+001 5.050000e+001 -1.387779e-016
      vertex   -3.950000e+001 5.050000e+001 2.000000e+000
    endloop
  endfacet
  facet normal 0.000000e+000 1.000000e+000 -3.552714e-015
    outer loop
      vertex   -3.950000e+001 5.050000e+001 2.000000e+000
      vertex   -4.450000e+001 5.050000e+001 2.000000e+000
      vertex   -3.450000e+001 5.050000e+001 4.000000e+000
    endloop
  endfacet
  facet normal 0.000000e+000 1.000000e+000 -3.552714e-015
    outer loop
      vertex   -3.450000e+001 5.050000e+001 4.000000e+000
      vertex   -4.450000e+001 5.050000e+001 2.000000e+000
      vertex   -4.850000e+001 5.050000e+001 2.000000e+000
    endloop
  endfacet
  facet normal -0.000000e+000 1.000000e+000 0.000000e+000
    outer loop
      vertex   -4.850000e+001 5.050000e+001 2.000000e+000
      vertex   -4.450000e+001 5.050000e+001 2.000000e+000
      vertex   -4.450000e+001 5.050000e+001 -1.387779e-016
    endloop
  endfacet
  facet normal -0.000000e+000 1.000000e+000 0.000000e+000
    outer loop
      vertex   -4.850000e+001 5.050000e+001 -1.387779e-016
      vertex   -4.850000e+001 5.050000e+001 2.000000e+000
      vertex   -4.450000e+001 5.050000e+001 -1.387779e-016
    endloop
  endfacet
  facet normal 0.000000e+000 1.000000e+000 -3.552714e-015
    outer loop
      vertex   -6.650000e+001 5.050000e+001 2.000000e+000
      vertex   -7.150000e+001 5.050000e+001 2.000000e+000
      vertex   -8.550000e+001 5.050000e+001 4.000000e+000
    endloop
  endfacet
  facet normal -1.000000e+000 -0.000000e+000 -0.000000e+000
    outer loop
      vertex   -8.550000e+001 5.050000e+001 4.000000e+000
      vertex   -8.550000e+001 5.050000e+001 0.000000e+000
      vertex   -8.550000e+001 4.250000e+001 4.000000e+000
    endloop
  endfacet
  facet normal -1.000000e+000 -0.000000e+000 -0.000000e+000
    outer loop
      vertex   -8.550000e+001 4.250000e+001 4.000000e+000
      vertex   -8.550000e+001 5.050000e+001 0.000000e+000
      vertex   -8.550000e+001 4.250000e+001 0.000000e+000
    endloop
  endfacet
  facet normal 1.000000e+000 -0.000000e+000 0.000000e+000
    outer loop
      vertex   -3.450000e+001 4.250000e+001 4.000000e+000
      vertex   -3.450000e+001 4.250000e+001 0.000000e+000
      vertex   -3.450000e+001 5.050000e+001 4.000000e+000
    endloop
  endfacet
  facet normal 1.000000e+000 -0.000000e+000 0.000000e+000
    outer loop
      vertex   -3.450000e+001 5.050000e+001 4.000000e+000
      vertex   -3.450000e+001 4.250000e+001 0.000000e+000
      vertex   -3.450000e+001 5.050000e+001 0.000000e+000
    endloop
  endfacet
  facet normal -0.000000e+000 1.000000e+000 0.000000e+000
    outer loop
      vertex   -3.450000e+001 4.250000e+001 0.000000e+000
      vertex   -3.450000e+001 4.250000e+001 4.000000e+000
      vertex   -3.000000e+001 4.250000e+001 0.000000e+000
    endloop
  endfacet
  facet normal 0.000000e+000 1.000000e+000 -0.000000e+000
    outer loop
      vertex   -3.000000e+001 4.250000e+001 0.000000e+000
      vertex   -3.450000e+001 4.250000e+001 4.000000e+000
      vertex   -3.000000e+001 4.250000e+001 4.000000e+000
    endloop
  endfacet
  facet normal 0.000000e+000 1.000000e+000 0.000000e+000
    outer loop
      vertex   -8.550000e+001 4.250000e+001 4.000000e+000
      vertex   -8.550000e+001 4.250000e+001 0.000000e+000
      vertex   -9.000000e+001 4.250000e+001 4.000000e+000
    endloop
  endfacet
  facet normal 0.000000e+000 1.000000e+000 0.000000e+000
    outer loop
      vertex   -9.000000e+001 4.250000e+001 4.000000e+000
      vertex   -8.550000e+001 4.250000e+001 0.000000e+000
      vertex   -9.000000e+001 4.250000e+001 0.000000e+000
    endloop
  endfacet
  facet normal 0.000000e+000 0.000000e+000 1.000000e+000
    outer loop
      vertex   -3.000000e+001 4.250000e+001 4.000000e+000
      vertex   -3.450000e+001 4.250000e+001 4.000000e+000
      vertex   -3.000000e+001 3.750000e+001 4.000000e+000
    endloop
  endfacet
  facet normal 0.000000e+000 0.000000e+000 1.000000e+000
    outer loop
      vertex   -3.000000e+001 3.750000e+001 4.000000e+000
      vertex   -3.450000e+001 4.250000e+001 4.000000e+000
      vertex   -6.000000e+001 3.750000e+001 4.000000e+000
    endloop
  endfacet
  facet normal 0.000000e+000 -0.000000e+000 1.000000e+000
    outer loop
      vertex   -6.000000e+001 3.750000e+001 4.000000e+000
      vertex   -3.450000e+001 4.250000e+001 4.000000e+000
      vertex   -8.550000e+001 4.250000e+001 4.000000e+000
    endloop
  endfacet
  facet normal 0.000000e+000 -0.000000e+000 1.000000e+000
    outer loop
      vertex   -9.000000e+001 3.750000e+001 4.000000e+000
      vertex   -8.550000e+001 4.250000e+001 4.000000e+000
      vertex   -9.000000e+001 4.250000e+001 4.000000e+000
    endloop
  endfacet
  facet normal 0.000000e+000 -0.000000e+000 1.000000e+000
    outer loop
      vertex   -9.000000e+001 3.750000e+001 4.000000e+000
      vertex   -6.000000e+001 3.750000e+001 4.000000e+000
      vertex   -8.550000e+001 4.250000e+001 4.000000e+000
    endloop
  endfacet
  facet normal 0.000000e+000 0.000000e+000 1.000000e+000
    outer loop
      vertex   -3.450000e+001 5.050000e+001 4.000000e+000
      vertex   -8.550000e+001 5.050000e+001 4.000000e+000
      vertex   -3.450000e+001 4.250000e+001 4.000000e+000
    endloop
  endfacet
  facet normal 0.000000e+000 0.000000e+000 1.000000e+000
    outer loop
      vertex   -3.450000e+001 4.250000e+001 4.000000e+000
      vertex   -8.550000e+001 5.050000e+001 4.000000e+000
      vertex   -8.550000e+001 4.250000e+001 4.000000e+000
    endloop
  endfacet
  facet normal 0.000000e+000 -1.000000e+000 0.000000e+000
    outer loop
      vertex   -9.000000e+001 3.750000e+001 4.000000e+000
      vertex   -9.000000e+001 3.750000e+001 0.000000e+000
      vertex   -6.000000e+001 3.750000e+001 4.000000e+000
    endloop
  endfacet
  facet normal 0.000000e+000 -1.000000e+000 -0.000000e+000
    outer loop
      vertex   -6.000000e+001 3.750000e+001 4.000000e+000
      vertex   -9.000000e+001 3.750000e+001 0.000000e+000
      vertex   -6.000000e+001 3.750000e+001 0.000000e+000
    endloop
  endfacet
  facet normal 0.000000e+000 -1.000000e+000 -0.000000e+000
    outer loop
      vertex   -3.000000e+001 3.750000e+001 4.000000e+000
      vertex   -6.000000e+001 3.750000e+001 0.000000e+000
      vertex   -3.000000e+001 3.750000e+001 0.000000e+000
    endloop
  endfacet
  facet normal -0.000000e+000 -1.000000e+000 -0.000000e+000
    outer loop
      vertex   -3.000000e+001 3.750000e+001 4.000000e+000
      vertex   -6.000000e+001 3.750000e+001 4.000000e+000
      vertex   -6.000000e+001 3.750000e+001 0.000000e+000
    endloop
  endfacet
  facet normal -1.000000e+000 -0.000000e+000 -0.000000e+000
    outer loop
      vertex   -9.000000e+001 4.250000e+001 4.000000e+000
      vertex   -9.000000e+001 4.250000e+001 0.000000e+000
      vertex   -9.000000e+001 3.750000e+001 4.000000e+000
    endloop
  endfacet
  facet normal -1.000000e+000 -0.000000e+000 -0.000000e+000
    outer loop
      vertex   -9.000000e+001 3.750000e+001 4.000000e+000
      vertex   -9.000000e+001 4.250000e+001 0.000000e+000
      vertex   -9.000000e+001 3.750000e+001 0.000000e+000
    endloop
  endfacet
  facet normal 1.000000e+000 -0.000000e+000 0.000000e+000
    outer loop
      vertex   -3.000000e+001 3.750000e+001 4.000000e+000
      vertex   -3.000000e+001 3.750000e+001 0.000000e+000
      vertex   -3.000000e+001 4.250000e+001 4.000000e+000
    endloop
  endfacet
  facet normal 1.000000e+000 -0.000000e+000 0.000000e+000
    outer loop
      vertex   -3.000000e+001 4.250000e+001 4.000000e+000
      vertex   -3.000000e+001 3.750000e+001 0.000000e+000
      vertex   -3.000000e+001 4.250000e+001 0.000000e+000
    endloop
  endfacet
  facet normal 0.000000e+000 0.000000e+000 1.000000e+000
    outer loop
      vertex   -5.750000e+001 6.450000e+001 2.000000e+000
      vertex   -6.250000e+001 6.450000e+001 2.000000e+000
      vertex   -5.750000e+001 5.050000e+001 2.000000e+000
    endloop
  endfacet
  facet normal 0.000000e+000 0.000000e+000 1.000000e+000
    outer loop
      vertex   -5.750000e+001 5.050000e+001 2.000000e+000
      vertex   -6.250000e+001 6.450000e+001 2.000000e+000
      vertex   -6.250000e+001 5.050000e+001 2.000000e+000
    endloop
  endfacet
  facet normal -1.000000e+000 0.000000e+000 0.000000e+000
    outer loop
      vertex   -6.250000e+001 5.050000e+001 -1.387779e-016
      vertex   -6.250000e+001 5.050000e+001 2.000000e+000
      vertex   -6.250000e+001 6.450000e+001 -2.775558e-016
    endloop
  endfacet
  facet normal -1.000000e+000 0.000000e+000 0.000000e+000
    outer loop
      vertex   -6.250000e+001 6.450000e+001 -2.775558e-016
      vertex   -6.250000e+001 5.050000e+001 2.000000e+000
      vertex   -6.250000e+001 6.450000e+001 2.000000e+000
    endloop
  endfacet
  facet normal 1.000000e+000 -0.000000e+000 0.000000e+000
    outer loop
      vertex   -5.750000e+001 5.050000e+001 2.000000e+000
      vertex   -5.750000e+001 5.050000e+001 -1.387779e-016
      vertex   -5.750000e+001 6.450000e+001 2.000000e+000
    endloop
  endfacet
  facet normal 1.000000e+000 0.000000e+000 0.000000e+000
    outer loop
      vertex   -5.750000e+001 6.450000e+001 2.000000e+000
      vertex   -5.750000e+001 5.050000e+001 -1.387779e-016
      vertex   -5.750000e+001 6.450000e+001 -2.775558e-016
    endloop
  endfacet
  facet normal 0.000000e+000 0.000000e+000 1.000000e+000
    outer loop
      vertex   -6.650000e+001 6.450000e+001 2.000000e+000
      vertex   -7.150000e+001 6.450000e+001 2.000000e+000
      vertex   -6.650000e+001 5.050000e+001 2.000000e+000
    endloop
  endfacet
  facet normal 0.000000e+000 0.000000e+000 1.000000e+000
    outer loop
      vertex   -6.650000e+001 5.050000e+001 2.000000e+000
      vertex   -7.150000e+001 6.450000e+001 2.000000e+000
      vertex   -7.150000e+001 5.050000e+001 2.000000e+000
    endloop
  endfacet
  facet normal -1.000000e+000 0.000000e+000 0.000000e+000
    outer loop
      vertex   -7.150000e+001 5.050000e+001 -1.387779e-016
      vertex   -7.150000e+001 5.050000e+001 2.000000e+000
      vertex   -7.150000e+001 6.450000e+001 -2.775558e-016
    endloop
  endfacet
  facet normal -1.000000e+000 0.000000e+000 0.000000e+000
    outer loop
      vertex   -7.150000e+001 6.450000e+001 -2.775558e-016
      vertex   -7.150000e+001 5.050000e+001 2.000000e+000
      vertex   -7.150000e+001 6.450000e+001 2.000000e+000
    endloop
  endfacet
  facet normal 1.000000e+000 -0.000000e+000 0.000000e+000
    outer loop
      vertex   -6.650000e+001 5.050000e+001 2.000000e+000
      vertex   -6.650000e+001 5.050000e+001 -1.387779e-016
      vertex   -6.650000e+001 6.450000e+001 2.000000e+000
    endloop
  endfacet
  facet normal 1.000000e+000 0.000000e+000 0.000000e+000
    outer loop
      vertex   -6.650000e+001 6.450000e+001 2.000000e+000
      vertex   -6.650000e+001 5.050000e+001 -1.387779e-016
      vertex   -6.650000e+001 6.450000e+001 -2.775558e-016
    endloop
  endfacet
  facet normal 0.000000e+000 0.000000e+000 1.000000e+000
    outer loop
      vertex   -3.950000e+001 6.450000e+001 2.000000e+000
      vertex   -4.450000e+001 6.450000e+001 2.000000e+000
      vertex   -3.950000e+001 5.050000e+001 2.000000e+000
    endloop
  endfacet
  facet normal 0.000000e+000 0.000000e+000 1.000000e+000
    outer loop
      vertex   -3.950000e+001 5.050000e+001 2.000000e+000
      vertex   -4.450000e+001 6.450000e+001 2.000000e+000
      vertex   -4.450000e+001 5.050000e+001 2.000000e+000
    endloop
  endfacet
  facet normal -1.000000e+000 0.000000e+000 0.000000e+000
    outer loop
      vertex   -4.450000e+001 5.050000e+001 -1.387779e-016
      vertex   -4.450000e+001 5.050000e+001 2.000000e+000
      vertex   -4.450000e+001 6.450000e+001 -2.775558e-016
    endloop
  endfacet
  facet normal -1.000000e+000 0.000000e+000 0.000000e+000
    outer loop
      vertex   -4.450000e+001 6.450000e+001 -2.775558e-016
      vertex   -4.450000e+001 5.050000e+001 2.000000e+000
      vertex   -4.450000e+001 6.450000e+001 2.000000e+000
    endloop
  endfacet
  facet normal 1.000000e+000 -0.000000e+000 0.000000e+000
    outer loop
      vertex   -3.950000e+001 5.050000e+001 2.000000e+000
      vertex   -3.950000e+001 5.050000e+001 -1.387779e-016
      vertex   -3.950000e+001 6.450000e+001 2.000000e+000
    endloop
  endfacet
  facet normal 1.000000e+000 0.000000e+000 0.000000e+000
    outer loop
      vertex   -3.950000e+001 6.450000e+001 2.000000e+000
      vertex   -3.950000e+001 5.050000e+001 -1.387779e-016
      vertex   -3.950000e+001 6.450000e+001 -2.775558e-016
    endloop
  endfacet
  facet normal 0.000000e+000 0.000000e+000 1.000000e+000
    outer loop
      vertex   -4.850000e+001 6.450000e+001 2.000000e+000
      vertex   -5.350000e+001 6.450000e+001 2.000000e+000
      vertex   -4.850000e+001 5.050000e+001 2.000000e+000
    endloop
  endfacet
  facet normal 0.000000e+000 0.000000e+000 1.000000e+000
    outer loop
      vertex   -4.850000e+001 5.050000e+001 2.000000e+000
      vertex   -5.350000e+001 6.450000e+001 2.000000e+000
      vertex   -5.350000e+001 5.050000e+001 2.000000e+000
    endloop
  endfacet
  facet normal 0.000000e+000 -9.912706e-018 -1.000000e+000
    outer loop
      vertex   -5.350000e+001 6.450000e+001 -2.775558e-016
      vertex   -4.850000e+001 6.450000e+001 -2.775558e-016
      vertex   -5.350000e+001 5.050000e+001 -1.387779e-016
    endloop
  endfacet
  facet normal 0.000000e+000 -9.912706e-018 -1.000000e+000
    outer loop
      vertex   -5.350000e+001 5.050000e+001 -1.387779e-016
      vertex   -4.850000e+001 6.450000e+001 -2.775558e-016
      vertex   -4.850000e+001 5.050000e+001 -1.387779e-016
    endloop
  endfacet
  facet normal 2.532443e-018 -1.291546e-017 -1.000000e+000
    outer loop
      vertex   -6.000000e+001 3.750000e+001 0.000000e+000
      vertex   -4.850000e+001 5.050000e+001 -1.387779e-016
      vertex   -3.450000e+001 4.250000e+001 0.000000e+000
    endloop
  endfacet
  facet normal 0.000000e+000 0.000000e+000 -1.000000e+000
    outer loop
      vertex   -3.000000e+001 3.750000e+001 0.000000e+000
      vertex   -3.450000e+001 4.250000e+001 0.000000e+000
      vertex   -3.000000e+001 4.250000e+001 0.000000e+000
    endloop
  endfacet
  facet normal 0.000000e+000 0.000000e+000 -1.000000e+000
    outer loop
      vertex   -3.000000e+001 3.750000e+001 0.000000e+000
      vertex   -6.000000e+001 3.750000e+001 0.000000e+000
      vertex   -3.450000e+001 4.250000e+001 0.000000e+000
    endloop
  endfacet
  facet normal 0.000000e+000 -1.734723e-017 -1.000000e+000
    outer loop
      vertex   -4.850000e+001 5.050000e+001 -1.387779e-016
      vertex   -4.450000e+001 5.050000e+001 -1.387779e-016
      vertex   -3.450000e+001 4.250000e+001 0.000000e+000
    endloop
  endfacet
  facet normal 0.000000e+000 -1.734723e-017 -1.000000e+000
    outer loop
      vertex   -3.450000e+001 4.250000e+001 0.000000e+000
      vertex   -4.450000e+001 5.050000e+001 -1.387779e-016
      vertex   -3.950000e+001 5.050000e+001 -1.387779e-016
    endloop
  endfacet
  facet normal 2.775558e-017 0.000000e+000 -1.000000e+000
    outer loop
      vertex   -3.450000e+001 5.050000e+001 0.000000e+000
      vertex   -3.450000e+001 4.250000e+001 0.000000e+000
      vertex   -3.950000e+001 5.050000e+001 -1.387779e-016
    endloop
  endfacet
  facet normal 0.000000e+000 -9.912706e-018 -1.000000e+000
    outer loop
      vertex   -4.450000e+001 6.450000e+001 -2.775558e-016
      vertex   -3.950000e+001 6.450000e+001 -2.775558e-016
      vertex   -4.450000e+001 5.050000e+001 -1.387779e-016
    endloop
  endfacet
  facet normal 0.000000e+000 -9.912706e-018 -1.000000e+000
    outer loop
      vertex   -4.450000e+001 5.050000e+001 -1.387779e-016
      vertex   -3.950000e+001 6.450000e+001 -2.775558e-016
      vertex   -3.950000e+001 5.050000e+001 -1.387779e-016
    endloop
  endfacet
  facet normal 0.000000e+000 0.000000e+000 -1.000000e+000
    outer loop
      vertex   -9.000000e+001 3.750000e+001 0.000000e+000
      vertex   -8.550000e+001 4.250000e+001 0.000000e+000
      vertex   -6.000000e+001 3.750000e+001 0.000000e+000
    endloop
  endfacet
  facet normal 0.000000e+000 0.000000e+000 -1.000000e+000
    outer loop
      vertex   -9.000000e+001 3.750000e+001 0.000000e+000
      vertex   -9.000000e+001 4.250000e+001 0.000000e+000
      vertex   -8.550000e+001 4.250000e+001 0.000000e+000
    endloop
  endfacet
  facet normal -2.775558e-017 0.000000e+000 -1.000000e+000
    outer loop
      vertex   -8.550000e+001 5.050000e+001 0.000000e+000
      vertex   -8.050000e+001 5.050000e+001 -1.387779e-016
      vertex   -8.550000e+001 4.250000e+001 0.000000e+000
    endloop
  endfacet
  facet normal 0.000000e+000 -1.734723e-017 -1.000000e+000
    outer loop
      vertex   -8.550000e+001 4.250000e+001 0.000000e+000
      vertex   -8.050000e+001 5.050000e+001 -1.387779e-016
      vertex   -7.550000e+001 5.050000e+001 -1.387779e-016
    endloop
  endfacet
  facet normal 0.000000e+000 -1.734723e-017 -1.000000e+000
    outer loop
      vertex   -7.150000e+001 5.050000e+001 -1.387779e-016
      vertex   -8.550000e+001 4.250000e+001 0.000000e+000
      vertex   -7.550000e+001 5.050000e+001 -1.387779e-016
    endloop
  endfacet
  facet normal -2.532443e-018 -1.291546e-017 -1.000000e+000
    outer loop
      vertex   -7.150000e+001 5.050000e+001 -1.387779e-016
      vertex   -6.000000e+001 3.750000e+001 0.000000e+000
      vertex   -8.550000e+001 4.250000e+001 0.000000e+000
    endloop
  endfacet
  facet normal 0.000000e+000 -1.067522e-017 -1.000000e+000
    outer loop
      vertex   -7.150000e+001 5.050000e+001 -1.387779e-016
      vertex   -6.650000e+001 5.050000e+001 -1.387779e-016
      vertex   -6.000000e+001 3.750000e+001 0.000000e+000
    endloop
  endfacet
  facet normal 0.000000e+000 -9.912706e-018 -1.000000e+000
    outer loop
      vertex   -7.150000e+001 5.050000e+001 -1.387779e-016
      vertex   -6.650000e+001 6.450000e+001 -2.775558e-016
      vertex   -6.650000e+001 5.050000e+001 -1.387779e-016
    endloop
  endfacet
  facet normal 0.000000e+000 -9.912706e-018 -1.000000e+000
    outer loop
      vertex   -7.150000e+001 5.050000e+001 -1.387779e-016
      vertex   -7.150000e+001 6.450000e+001 -2.775558e-016
      vertex   -6.650000e+001 6.450000e+001 -2.775558e-016
    endloop
  endfacet
  facet normal 0.000000e+000 -9.912706e-018 -1.000000e+000
    outer loop
      vertex   -8.050000e+001 6.450000e+001 -2.775558e-016
      vertex   -7.550000e+001 6.450000e+001 -2.775558e-016
      vertex   -8.050000e+001 5.050000e+001 -1.387779e-016
    endloop
  endfacet
  facet normal 0.000000e+000 -9.912706e-018 -1.000000e+000
    outer loop
      vertex   -8.050000e+001 5.050000e+001 -1.387779e-016
      vertex   -7.550000e+001 6.450000e+001 -2.775558e-016
      vertex   -7.550000e+001 5.050000e+001 -1.387779e-016
    endloop
  endfacet
  facet normal 0.000000e+000 -1.067522e-017 -1.000000e+000
    outer loop
      vertex   -6.650000e+001 5.050000e+001 -1.387779e-016
      vertex   -6.250000e+001 5.050000e+001 -1.387779e-016
      vertex   -6.000000e+001 3.750000e+001 0.000000e+000
    endloop
  endfacet
  facet normal 0.000000e+000 -1.067522e-017 -1.000000e+000
    outer loop
      vertex   -6.000000e+001 3.750000e+001 0.000000e+000
      vertex   -6.250000e+001 5.050000e+001 -1.387779e-016
      vertex   -5.750000e+001 5.050000e+001 -1.387779e-016
    endloop
  endfacet
  facet normal 0.000000e+000 -1.067522e-017 -1.000000e+000
    outer loop
      vertex   -5.350000e+001 5.050000e+001 -1.387779e-016
      vertex   -6.000000e+001 3.750000e+001 0.000000e+000
      vertex   -5.750000e+001 5.050000e+001 -1.387779e-016
    endloop
  endfacet
  facet normal 0.000000e+000 -1.067522e-017 -1.000000e+000
    outer loop
      vertex   -5.350000e+001 5.050000e+001 -1.387779e-016
      vertex   -4.850000e+001 5.050000e+001 -1.387779e-016
      vertex   -6.000000e+001 3.750000e+001 0.000000e+000
    endloop
  endfacet
  facet normal 0.000000e+000 -9.912706e-018 -1.000000e+000
    outer loop
      vertex   -6.250000e+001 6.450000e+001 -2.775558e-016
      vertex   -5.750000e+001 6.450000e+001 -2.775558e-016
      vertex   -6.250000e+001 5.050000e+001 -1.387779e-016
    endloop
  endfacet
  facet normal 0.000000e+000 -9.912706e-018 -1.000000e+000
    outer loop
      vertex   -6.250000e+001 5.050000e+001 -1.387779e-016
      vertex   -5.750000e+001 6.450000e+001 -2.775558e-016
      vertex   -5.750000e+001 5.050000e+001 -1.387779e-016
    endloop
  endfacet
  facet normal -1.000000e+000 0.000000e+000 0.000000e+000
    outer loop
      vertex   -5.350000e+001 5.050000e+001 -1.387779e-016
      vertex   -5.350000e+001 5.050000e+001 2.000000e+000
      vertex   -5.350000e+001 6.450000e+001 -2.775558e-016
    endloop
  endfacet
  facet normal -1.000000e+000 0.000000e+000 0.000000e+000
    outer loop
      vertex   -5.350000e+001 6.450000e+001 -2.775558e-016
      vertex   -5.350000e+001 5.050000e+001 2.000000e+000
      vertex   -5.350000e+001 6.450000e+001 2.000000e+000
    endloop
  endfacet
  facet normal 1.000000e+000 -0.000000e+000 0.000000e+000
    outer loop
      vertex   -4.850000e+001 5.050000e+001 2.000000e+000
      vertex   -4.850000e+001 5.050000e+001 -1.387779e-016
      vertex   -4.850000e+001 6.450000e+001 2.000000e+000
    endloop
  endfacet
  facet normal 1.000000e+000 0.000000e+000 0.000000e+000
    outer loop
      vertex   -4.850000e+001 6.450000e+001 2.000000e+000
      vertex   -4.850000e+001 5.050000e+001 -1.387779e-016
      vertex   -4.850000e+001 6.450000e+001 -2.775558e-016
    endloop
  endfacet
endsolid
